# xmcd
#
# Track frame offsets:
#	150
#	14590
#	25955
#	38238
#	53964
#	68191
#	80331
#	92025
#	106115
#	117521
#	133734
#	143560
#	164251
#	176872
#	190601
#	201216
#	217396
#	229358
#	247534
#	258193
#	271994
#	281970
#	294060
#	306759
#
# Disc length: 4260 seconds
#
# Revision: 0
# Processed by: cddbd v1.5.1PL0 Copyright (c) Steve Scherf et al.
# Submitted via: audiograbber 1.80
#
DISCID=6010a218
DTITLE=Marks and Spencer - Easy Listening CD1
DYEAR=1900
DGENRE=
TTITLE0=The Walker Brothers - Make It Easy On Yourself
TTITLE1=Jack Jones - True Love
TTITLE2=Tony Christie - The Most Beautiful Girl In The World
TTITLE3=Dusty Springfield - The Look Of Love
TTITLE4=The Sandpipers - Guantanamera
TTITLE5=Pat Boone - Quando, Quando, Quando
TTITLE6=Vikki Carr - You Don't Have To Say You Love Me
TTITLE7=Cilla Black - You've Lost That Lovin' Feeling
TTITLE8=Ray Conniff - Taking A Chance On Love
TTITLE9=Buddy Greco - The Lady Is A Tramp
TTITLE10=Nancy Wilson - What Kind Of Fool Am I?
TTITLE11=Louis Armstrong - Ain't Misbehavin'
TTITLE12=Bobby Vinton - Blue Velvet
TTITLE13=Guy Mirchell - Pennies From Heaven
TTITLE14=Dean Martin - Kiss
TTITLE15=The Righteous Brothers - Unchained Melody
TTITLE16=Peter and Gordon - A World Without Love
TTITLE17=Malcolm Roberts - My Way
TTITLE18=Jerry Vale - Have You Looked Into Your Heart
TTITLE19=Anita Harris - Just Loving You
TTITLE20=Michael Holliday - The Story Of My Life
TTITLE21=Ronnie Hilton - Around The World
TTITLE22=Ken Dodd - Tears
TTITLE23=Matt Monro - Yesterday
EXTD=
EXTT0=
EXTT1=
EXTT2=
EXTT3=
EXTT4=
EXTT5=
EXTT6=
EXTT7=
EXTT8=
EXTT9=
EXTT10=
EXTT11=
EXTT12=
EXTT13=
EXTT14=
EXTT15=
EXTT16=
EXTT17=
EXTT18=
EXTT19=
EXTT20=
EXTT21=
EXTT22=
EXTT23=
PLAYORDER=
